<svg id="svg" version="1.1" xmlns="http://www.w3.org/2000/svg" xmlns:xlink="http://www.w3.org/1999/xlink" width="400" height="400" viewBox="0, 0, 400,400"><g id="svgg"><path id="path0" d="M72.100 0.269 C 71.385 0.369,70.800 0.619,70.800 0.825 C 70.800 1.031,70.547 1.200,70.238 1.200 C 69.572 1.200,66.259 2.868,66.067 3.300 C 65.993 3.465,65.578 3.600,65.143 3.600 C 64.708 3.600,64.464 3.780,64.600 4.000 C 64.736 4.220,64.638 4.400,64.383 4.400 C 63.619 4.400,58.788 9.683,58.074 11.300 C 57.709 12.125,57.274 12.800,57.106 12.800 C 56.938 12.800,56.800 13.171,56.800 13.624 C 56.800 14.077,56.650 14.355,56.468 14.242 C 56.285 14.129,55.891 14.658,55.593 15.418 C 55.295 16.178,54.904 16.800,54.725 16.800 C 54.546 16.800,54.400 17.160,54.400 17.600 C 54.400 18.040,54.220 18.400,54.000 18.400 C 53.780 18.400,53.600 18.681,53.600 19.024 C 53.600 19.393,53.412 19.531,53.138 19.362 C 52.864 19.193,52.785 19.251,52.942 19.506 C 53.088 19.742,52.936 20.207,52.604 20.539 C 52.272 20.871,52.000 21.426,52.000 21.771 C 52.000 22.117,51.820 22.400,51.600 22.400 C 51.380 22.400,51.200 22.760,51.200 23.200 C 51.200 23.640,51.053 24.000,50.874 24.000 C 50.465 24.000,48.800 27.081,48.800 27.838 C 48.800 28.147,48.620 28.400,48.400 28.400 C 48.180 28.400,48.000 28.760,48.000 29.200 C 48.000 29.640,47.820 30.000,47.600 30.000 C 47.380 30.000,47.200 30.540,47.200 31.200 C 47.200 31.860,47.020 32.400,46.800 32.400 C 46.580 32.400,46.400 32.940,46.400 33.600 C 46.400 34.260,46.220 34.800,46.000 34.800 C 45.780 34.800,45.600 35.329,45.600 35.976 C 45.600 36.623,45.420 37.264,45.200 37.400 C 44.980 37.536,44.800 38.411,44.800 39.344 C 44.800 40.277,44.615 41.225,44.390 41.450 C 43.826 42.014,43.821 60.140,44.385 60.328 C 44.613 60.404,44.800 61.251,44.800 62.210 C 44.800 63.168,44.980 64.064,45.200 64.200 C 45.420 64.336,45.600 64.966,45.600 65.600 C 45.600 66.234,45.780 66.864,46.000 67.000 C 46.220 67.136,46.400 67.676,46.400 68.200 C 46.400 68.724,46.580 69.264,46.800 69.400 C 47.020 69.536,47.200 70.087,47.200 70.624 C 47.200 71.161,47.380 71.600,47.600 71.600 C 47.820 71.600,48.000 72.050,48.000 72.600 C 48.000 73.150,48.180 73.600,48.400 73.600 C 48.620 73.600,48.800 73.960,48.800 74.400 C 48.800 74.840,48.936 75.200,49.102 75.200 C 49.414 75.200,50.499 77.385,50.402 77.818 C 50.372 77.951,50.719 78.383,51.174 78.777 C 51.628 79.171,52.000 79.788,52.000 80.147 C 52.000 80.506,52.180 80.800,52.400 80.800 C 52.620 80.800,52.800 81.081,52.800 81.424 C 52.800 81.767,52.980 81.936,53.200 81.800 C 53.420 81.664,53.600 81.842,53.600 82.195 C 53.600 82.548,54.050 83.286,54.600 83.836 C 55.150 84.386,55.600 85.015,55.600 85.233 C 55.600 85.811,63.810 94.000,64.389 94.000 C 64.659 94.000,65.383 94.540,66.000 95.200 C 66.617 95.860,67.409 96.400,67.760 96.400 C 68.112 96.400,68.400 96.536,68.400 96.702 C 68.400 96.869,68.940 97.244,69.600 97.536 C 70.754 98.047,71.231 98.800,70.400 98.800 C 70.180 98.800,70.000 99.419,70.000 100.176 C 70.000 100.933,69.820 101.664,69.600 101.800 C 69.380 101.936,69.200 102.566,69.200 103.200 C 69.200 103.834,69.020 104.464,68.800 104.600 C 68.580 104.736,68.400 105.467,68.400 106.224 C 68.400 106.981,68.220 107.600,68.000 107.600 C 67.780 107.600,67.600 108.219,67.600 108.976 C 67.600 109.733,67.420 110.464,67.200 110.600 C 66.980 110.736,66.800 111.467,66.800 112.224 C 66.800 112.981,66.620 113.600,66.400 113.600 C 66.180 113.600,66.000 114.309,66.000 115.176 C 66.000 116.043,65.820 116.864,65.600 117.000 C 65.380 117.136,65.200 117.867,65.200 118.624 C 65.200 119.381,65.020 120.000,64.800 120.000 C 64.580 120.000,64.400 120.619,64.400 121.376 C 64.400 122.133,64.220 122.864,64.000 123.000 C 63.780 123.136,63.600 123.766,63.600 124.400 C 63.600 125.034,63.420 125.664,63.200 125.800 C 62.980 125.936,62.800 126.656,62.800 127.400 C 62.800 128.144,62.620 128.864,62.400 129.000 C 62.180 129.136,62.000 129.867,62.000 130.624 C 62.000 131.381,61.820 132.000,61.600 132.000 C 61.380 132.000,61.200 132.619,61.200 133.376 C 61.200 134.133,61.020 134.864,60.800 135.000 C 60.580 135.136,60.400 135.856,60.400 136.600 C 60.400 137.344,60.220 138.064,60.000 138.200 C 59.780 138.336,59.600 139.037,59.600 139.757 C 59.600 140.477,59.475 141.192,59.322 141.345 C 59.011 141.656,58.902 142.153,58.539 144.900 C 58.401 145.945,58.134 146.800,57.944 146.800 C 57.755 146.800,57.600 147.531,57.600 148.424 C 57.600 149.404,57.442 149.949,57.200 149.800 C 56.958 149.651,56.800 150.196,56.800 151.176 C 56.800 152.069,56.620 152.800,56.400 152.800 C 56.180 152.800,56.000 153.520,56.000 154.400 C 56.000 155.280,55.820 156.000,55.600 156.000 C 55.380 156.000,55.200 156.720,55.200 157.600 C 55.200 158.480,55.020 159.200,54.800 159.200 C 54.580 159.200,54.400 159.819,54.400 160.576 C 54.400 161.333,54.220 162.064,54.000 162.200 C 53.780 162.336,53.600 162.966,53.600 163.600 C 53.600 164.234,53.420 164.864,53.200 165.000 C 52.980 165.136,52.800 165.766,52.800 166.400 C 52.800 167.034,52.620 167.664,52.400 167.800 C 52.180 167.936,52.000 168.667,52.000 169.424 C 52.000 170.181,51.820 170.800,51.600 170.800 C 51.380 170.800,51.200 171.509,51.200 172.376 C 51.200 173.243,51.020 174.064,50.800 174.200 C 50.580 174.336,50.400 174.966,50.400 175.600 C 50.400 176.234,50.220 176.864,50.000 177.000 C 49.780 177.136,49.600 177.867,49.600 178.624 C 49.600 179.381,49.420 180.000,49.200 180.000 C 48.980 180.000,48.800 180.720,48.800 181.600 C 48.800 182.480,48.620 183.200,48.400 183.200 C 48.180 183.200,48.000 183.819,48.000 184.576 C 48.000 185.333,47.840 186.052,47.644 186.173 C 47.449 186.294,47.179 187.024,47.044 187.796 C 46.910 188.568,46.690 189.832,46.556 190.604 C 46.421 191.376,46.151 192.106,45.956 192.227 C 45.760 192.348,45.600 192.966,45.600 193.600 C 45.600 194.234,45.420 194.864,45.200 195.000 C 44.980 195.136,44.800 195.856,44.800 196.600 C 44.800 197.344,44.620 198.064,44.400 198.200 C 44.180 198.336,44.000 199.056,44.000 199.800 C 44.000 200.544,43.820 201.264,43.600 201.400 C 43.380 201.536,43.200 202.237,43.200 202.957 C 43.200 203.677,43.065 204.401,42.900 204.565 C 42.592 204.872,41.719 208.624,41.332 211.303 C 41.213 212.129,40.955 212.905,40.758 213.026 C 40.561 213.148,40.400 213.856,40.400 214.600 C 40.400 215.344,40.220 216.064,40.000 216.200 C 39.780 216.336,39.600 217.167,39.600 218.047 C 39.600 218.927,39.453 219.556,39.274 219.445 C 39.094 219.335,38.904 220.089,38.852 221.122 C 38.800 222.155,38.587 223.060,38.379 223.133 C 38.170 223.207,38.000 224.051,38.000 225.010 C 38.000 225.968,37.820 226.864,37.600 227.000 C 37.380 227.136,37.200 228.216,37.200 229.400 C 37.200 230.584,37.020 231.664,36.800 231.800 C 36.580 231.936,36.400 233.567,36.400 235.424 C 36.400 237.408,36.235 238.800,36.000 238.800 C 35.742 238.800,35.600 243.200,35.600 251.200 C 35.600 259.200,35.742 263.600,36.000 263.600 C 36.233 263.600,36.400 264.925,36.400 266.776 C 36.400 268.523,36.580 270.064,36.800 270.200 C 37.020 270.336,37.200 271.416,37.200 272.600 C 37.200 273.784,37.380 274.864,37.600 275.000 C 37.820 275.136,38.000 276.036,38.000 277.000 C 38.000 277.964,38.180 278.864,38.400 279.000 C 38.620 279.136,38.800 279.957,38.800 280.824 C 38.800 281.691,38.980 282.400,39.200 282.400 C 39.420 282.400,39.600 283.019,39.600 283.776 C 39.600 284.533,39.780 285.264,40.000 285.400 C 40.220 285.536,40.400 286.166,40.400 286.800 C 40.400 287.434,40.560 288.052,40.756 288.173 C 40.951 288.294,41.204 288.979,41.317 289.696 C 41.734 292.343,42.654 295.343,43.647 297.295 C 43.841 297.677,44.000 298.352,44.000 298.795 C 44.000 299.238,44.147 299.600,44.328 299.600 C 44.508 299.600,44.900 300.500,45.200 301.600 C 45.500 302.700,45.892 303.600,46.072 303.600 C 46.253 303.600,46.400 303.960,46.400 304.400 C 46.400 304.840,46.580 305.200,46.800 305.200 C 47.020 305.200,47.200 305.635,47.200 306.167 C 47.200 306.698,47.335 307.193,47.500 307.267 C 47.858 307.426,50.400 312.350,50.400 312.885 C 50.400 313.090,50.672 313.529,51.004 313.861 C 51.336 314.193,51.488 314.658,51.342 314.894 C 51.185 315.149,51.264 315.207,51.538 315.038 C 51.812 314.869,52.000 315.007,52.000 315.376 C 52.000 315.719,52.180 316.000,52.400 316.000 C 52.620 316.000,52.800 316.360,52.800 316.800 C 52.800 317.240,52.980 317.600,53.200 317.600 C 53.420 317.600,53.600 317.960,53.600 318.400 C 53.600 318.840,53.758 319.200,53.951 319.200 C 54.145 319.200,54.527 319.740,54.800 320.400 C 55.073 321.060,55.455 321.600,55.649 321.600 C 55.842 321.600,56.000 321.842,56.000 322.138 C 56.000 322.434,56.360 323.002,56.800 323.400 C 57.240 323.798,57.600 324.366,57.600 324.662 C 57.600 324.958,57.747 325.200,57.926 325.200 C 58.105 325.200,58.563 325.785,58.942 326.500 C 60.224 328.914,60.678 329.612,61.741 330.804 C 62.323 331.458,62.800 332.153,62.800 332.348 C 62.800 332.544,63.520 333.445,64.400 334.352 C 65.280 335.259,66.000 336.161,66.000 336.356 C 66.000 336.815,70.793 341.600,71.252 341.600 C 71.443 341.600,71.600 341.836,71.600 342.125 C 71.600 342.601,77.376 348.800,77.819 348.800 C 77.922 348.800,79.194 349.970,80.645 351.400 C 82.096 352.830,83.439 354.000,83.628 354.000 C 83.818 354.000,84.587 354.614,85.338 355.364 C 86.088 356.115,87.309 357.042,88.051 357.424 C 88.793 357.806,89.691 358.452,90.047 358.859 C 90.403 359.267,90.896 359.600,91.143 359.600 C 91.391 359.600,92.109 360.140,92.740 360.800 C 93.371 361.460,94.015 362.000,94.171 362.000 C 94.328 362.000,95.241 362.540,96.200 363.200 C 97.159 363.860,98.097 364.400,98.284 364.400 C 98.471 364.400,98.883 364.760,99.200 365.200 C 99.517 365.640,100.097 366.000,100.488 366.000 C 100.880 366.000,101.200 366.180,101.200 366.400 C 101.200 366.620,101.494 366.800,101.853 366.800 C 102.212 366.800,102.829 367.172,103.223 367.626 C 103.617 368.081,104.049 368.428,104.182 368.398 C 104.615 368.301,106.800 369.386,106.800 369.698 C 106.800 369.864,107.160 370.000,107.600 370.000 C 108.040 370.000,108.400 370.180,108.400 370.400 C 108.400 370.620,108.745 370.800,109.167 370.800 C 109.588 370.800,109.993 370.935,110.067 371.100 C 110.140 371.265,111.100 371.823,112.200 372.339 C 113.300 372.856,114.753 373.542,115.430 373.864 C 116.106 374.187,116.916 374.502,117.230 374.565 C 118.017 374.723,119.266 375.187,120.095 375.629 C 120.477 375.833,121.152 376.000,121.595 376.000 C 122.038 376.000,122.400 376.180,122.400 376.400 C 122.400 376.620,122.940 376.800,123.600 376.800 C 124.260 376.800,124.800 376.980,124.800 377.200 C 124.800 377.420,125.149 377.600,125.576 377.600 C 126.003 377.600,126.464 377.780,126.600 378.000 C 126.736 378.220,127.287 378.400,127.824 378.400 C 128.361 378.400,128.800 378.580,128.800 378.800 C 128.800 379.020,129.430 379.200,130.200 379.200 C 130.970 379.200,131.600 379.380,131.600 379.600 C 131.600 379.820,132.241 380.000,133.024 380.000 C 133.871 380.000,134.347 380.162,134.200 380.400 C 134.064 380.620,134.259 380.800,134.633 380.800 C 135.007 380.800,135.800 381.295,136.395 381.900 C 136.991 382.505,137.685 383.045,137.938 383.100 C 138.191 383.155,139.141 383.920,140.048 384.800 C 140.954 385.680,141.905 386.400,142.160 386.400 C 142.415 386.400,142.883 386.760,143.200 387.200 C 143.517 387.640,144.007 388.000,144.288 388.000 C 144.570 388.000,144.800 388.180,144.800 388.400 C 144.800 388.620,145.070 388.800,145.400 388.800 C 145.730 388.800,146.005 388.935,146.010 389.100 C 146.016 389.265,147.184 389.940,148.605 390.600 C 150.027 391.260,151.192 391.935,151.195 392.100 C 151.198 392.265,151.560 392.400,152.000 392.400 C 152.440 392.400,152.800 392.580,152.800 392.800 C 152.800 393.020,153.160 393.200,153.600 393.200 C 154.040 393.200,154.400 393.380,154.400 393.600 C 154.400 393.820,154.749 394.000,155.176 394.000 C 155.603 394.000,156.064 394.180,156.200 394.400 C 156.336 394.620,156.887 394.800,157.424 394.800 C 157.961 394.800,158.400 394.980,158.400 395.200 C 158.400 395.420,158.672 395.600,159.005 395.600 C 159.338 395.600,159.968 395.780,160.405 396.000 C 160.842 396.220,161.558 396.580,161.995 396.800 C 162.432 397.020,163.252 397.200,163.818 397.200 C 164.402 397.200,164.740 397.373,164.600 397.600 C 164.451 397.842,164.996 398.000,165.976 398.000 C 166.869 398.000,167.600 398.180,167.600 398.400 C 167.600 398.620,168.305 398.800,169.167 398.800 C 170.064 398.800,170.804 399.013,170.900 399.300 C 171.144 400.033,228.856 400.033,229.100 399.300 C 229.196 399.013,229.936 398.800,230.833 398.800 C 231.695 398.800,232.400 398.620,232.400 398.400 C 232.400 398.180,233.131 398.000,234.024 398.000 C 235.004 398.000,235.549 397.842,235.400 397.600 C 235.253 397.361,235.737 397.200,236.600 397.200 C 237.463 397.200,237.947 397.039,237.800 396.800 C 237.660 396.574,237.988 396.400,238.553 396.400 C 239.103 396.400,239.664 396.220,239.800 396.000 C 239.936 395.780,240.397 395.600,240.824 395.600 C 241.251 395.600,241.600 395.420,241.600 395.200 C 241.600 394.980,242.140 394.800,242.800 394.800 C 243.460 394.800,244.000 394.620,244.000 394.400 C 244.000 394.180,244.360 394.000,244.800 394.000 C 245.240 394.000,245.600 393.820,245.600 393.600 C 245.600 393.380,245.960 393.200,246.400 393.200 C 246.840 393.200,247.200 393.020,247.200 392.800 C 247.200 392.580,247.560 392.400,248.000 392.400 C 248.440 392.400,248.802 392.265,248.805 392.100 C 248.808 391.935,249.978 391.260,251.405 390.600 C 252.832 389.940,254.000 389.265,254.000 389.100 C 254.000 388.935,254.188 388.800,254.417 388.800 C 254.834 388.800,255.379 388.416,256.829 387.100 C 257.253 386.715,257.758 386.400,257.952 386.400 C 258.145 386.400,259.045 385.680,259.952 384.800 C 260.859 383.920,261.689 383.200,261.796 383.200 C 261.987 383.200,263.238 382.225,264.153 381.363 C 265.000 380.565,266.335 380.000,267.374 380.000 C 267.938 380.000,268.400 379.820,268.400 379.600 C 268.400 379.380,269.030 379.200,269.800 379.200 C 270.570 379.200,271.200 379.020,271.200 378.800 C 271.200 378.580,271.650 378.400,272.200 378.400 C 272.750 378.400,273.200 378.220,273.200 378.000 C 273.200 377.780,273.650 377.600,274.200 377.600 C 274.750 377.600,275.200 377.420,275.200 377.200 C 275.200 376.980,275.740 376.800,276.400 376.800 C 277.060 376.800,277.600 376.620,277.600 376.400 C 277.600 376.180,278.140 376.000,278.800 376.000 C 279.460 376.000,280.000 375.820,280.000 375.600 C 280.000 375.380,280.330 375.200,280.733 375.200 C 281.137 375.200,281.602 375.065,281.767 374.900 C 281.932 374.735,282.187 374.598,282.333 374.595 C 283.172 374.581,289.739 371.573,289.933 371.115 C 290.007 370.942,290.412 370.800,290.833 370.800 C 291.255 370.800,291.600 370.620,291.600 370.400 C 291.600 370.180,291.960 370.000,292.400 370.000 C 292.840 370.000,293.200 369.820,293.200 369.600 C 293.200 369.380,293.545 369.200,293.967 369.200 C 294.388 369.200,294.793 369.034,294.867 368.830 C 294.940 368.627,295.270 368.402,295.600 368.330 C 295.930 368.259,296.491 367.885,296.847 367.500 C 297.203 367.115,297.788 366.800,298.147 366.800 C 298.506 366.800,298.800 366.620,298.800 366.400 C 298.800 366.180,299.120 366.000,299.512 366.000 C 299.903 366.000,300.483 365.640,300.800 365.200 C 301.117 364.760,301.697 364.400,302.088 364.400 C 302.480 364.400,302.800 364.262,302.800 364.094 C 302.800 363.926,303.520 363.344,304.400 362.800 C 305.280 362.256,306.000 361.674,306.000 361.506 C 306.000 361.338,306.268 361.200,306.597 361.200 C 306.925 361.200,307.418 360.840,307.693 360.400 C 307.968 359.960,308.427 359.600,308.714 359.600 C 309.001 359.600,309.672 359.164,310.205 358.631 C 310.738 358.098,311.540 357.546,311.987 357.404 C 312.434 357.262,312.800 356.948,312.800 356.706 C 312.800 356.465,312.917 356.383,313.059 356.526 C 313.202 356.669,313.607 356.465,313.959 356.074 C 314.312 355.682,315.176 354.960,315.880 354.468 C 317.060 353.644,318.305 352.495,325.000 346.055 C 326.320 344.785,327.655 343.263,327.968 342.673 C 328.280 342.083,328.661 341.600,328.816 341.600 C 329.239 341.600,334.000 336.768,334.000 336.338 C 334.000 336.132,334.405 335.544,334.900 335.032 C 336.340 333.541,337.200 332.419,337.200 332.029 C 337.200 331.830,337.362 331.607,337.560 331.533 C 337.758 331.460,338.746 330.140,339.755 328.600 C 340.765 327.060,341.773 325.583,341.995 325.317 C 342.218 325.051,342.400 324.674,342.400 324.479 C 342.400 324.284,342.760 323.798,343.200 323.400 C 343.640 323.002,344.000 322.516,344.000 322.321 C 344.000 322.126,344.360 321.580,344.800 321.108 C 345.240 320.636,345.600 320.013,345.600 319.725 C 345.600 319.436,345.780 319.200,346.000 319.200 C 346.220 319.200,346.400 318.840,346.400 318.400 C 346.400 317.960,346.580 317.600,346.800 317.600 C 347.020 317.600,347.200 317.240,347.200 316.800 C 347.200 316.360,347.380 316.000,347.600 316.000 C 347.820 316.000,348.000 315.719,348.000 315.376 C 348.000 315.033,348.184 314.867,348.410 315.006 C 348.635 315.145,348.775 315.111,348.721 314.930 C 348.579 314.460,349.735 312.000,350.098 312.000 C 350.264 312.000,350.400 311.640,350.400 311.200 C 350.400 310.760,350.580 310.400,350.800 310.400 C 351.020 310.400,351.200 310.166,351.200 309.880 C 351.200 309.144,352.141 307.207,352.500 307.203 C 352.665 307.201,352.800 306.750,352.800 306.200 C 352.800 305.650,352.980 305.200,353.200 305.200 C 353.420 305.200,353.600 304.840,353.600 304.400 C 353.600 303.960,353.747 303.600,353.928 303.600 C 354.108 303.600,354.500 302.700,354.800 301.600 C 355.100 300.500,355.453 299.600,355.585 299.600 C 355.717 299.600,356.071 298.745,356.371 297.700 C 356.671 296.655,357.020 295.620,357.146 295.400 C 357.273 295.180,357.424 294.696,357.482 294.323 C 357.540 293.951,357.858 292.871,358.188 291.923 C 358.518 290.976,358.791 289.795,358.794 289.300 C 358.797 288.805,358.980 288.400,359.200 288.400 C 359.420 288.400,359.600 287.781,359.600 287.024 C 359.600 286.267,359.780 285.536,360.000 285.400 C 360.220 285.264,360.400 284.533,360.400 283.776 C 360.400 283.019,360.580 282.400,360.800 282.400 C 361.020 282.400,361.200 281.691,361.200 280.824 C 361.200 279.957,361.380 279.136,361.600 279.000 C 361.820 278.864,362.000 277.874,362.000 276.800 C 362.000 275.726,362.180 274.736,362.400 274.600 C 362.620 274.464,362.800 273.474,362.800 272.400 C 362.800 271.326,362.980 270.336,363.200 270.200 C 363.420 270.064,363.600 268.444,363.600 266.600 C 363.600 264.741,363.783 263.134,364.010 262.994 C 364.277 262.829,364.409 258.549,364.388 250.760 C 364.368 243.350,364.212 238.869,363.978 239.014 C 363.751 239.154,363.600 237.805,363.600 235.647 C 363.600 233.667,363.420 231.936,363.200 231.800 C 362.980 231.664,362.800 230.584,362.800 229.400 C 362.800 228.216,362.620 227.136,362.400 227.000 C 362.180 226.864,362.000 225.968,362.000 225.010 C 362.000 224.051,361.830 223.207,361.621 223.133 C 361.413 223.060,361.200 222.155,361.148 221.122 C 361.096 220.089,360.906 219.335,360.726 219.445 C 360.547 219.556,360.400 218.927,360.400 218.047 C 360.400 217.167,360.220 216.336,360.000 216.200 C 359.780 216.064,359.600 215.344,359.600 214.600 C 359.600 213.856,359.439 213.148,359.242 213.026 C 359.045 212.905,358.787 212.129,358.668 211.303 C 358.281 208.624,357.408 204.872,357.100 204.565 C 356.935 204.401,356.800 203.677,356.800 202.957 C 356.800 202.237,356.620 201.536,356.400 201.400 C 356.180 201.264,356.000 200.544,356.000 199.800 C 356.000 199.056,355.820 198.336,355.600 198.200 C 355.380 198.064,355.200 197.344,355.200 196.600 C 355.200 195.856,355.020 195.136,354.800 195.000 C 354.580 194.864,354.400 194.234,354.400 193.600 C 354.400 192.966,354.240 192.348,354.044 192.227 C 353.849 192.106,353.579 191.376,353.444 190.604 C 353.310 189.832,353.090 188.568,352.956 187.796 C 352.821 187.024,352.551 186.294,352.356 186.173 C 352.160 186.052,352.000 185.333,352.000 184.576 C 352.000 183.819,351.820 183.200,351.600 183.200 C 351.380 183.200,351.200 182.480,351.200 181.600 C 351.200 180.720,351.020 180.000,350.800 180.000 C 350.580 180.000,350.400 179.381,350.400 178.624 C 350.400 177.867,350.220 177.136,350.000 177.000 C 349.780 176.864,349.600 176.234,349.600 175.600 C 349.600 174.966,349.420 174.336,349.200 174.200 C 348.980 174.064,348.800 173.243,348.800 172.376 C 348.800 171.509,348.620 170.800,348.400 170.800 C 348.180 170.800,348.000 170.181,348.000 169.424 C 348.000 168.667,347.820 167.936,347.600 167.800 C 347.380 167.664,347.200 167.034,347.200 166.400 C 347.200 165.766,347.020 165.136,346.800 165.000 C 346.580 164.864,346.400 164.234,346.400 163.600 C 346.400 162.966,346.220 162.336,346.000 162.200 C 345.780 162.064,345.600 161.333,345.600 160.576 C 345.600 159.819,345.420 159.200,345.200 159.200 C 344.980 159.200,344.800 158.480,344.800 157.600 C 344.800 156.720,344.620 156.000,344.400 156.000 C 344.180 156.000,344.000 155.280,344.000 154.400 C 344.000 153.520,343.820 152.800,343.600 152.800 C 343.380 152.800,343.200 152.080,343.200 151.200 C 343.200 150.320,343.020 149.600,342.800 149.600 C 342.580 149.600,342.400 148.970,342.400 148.200 C 342.400 147.430,342.245 146.800,342.056 146.800 C 341.866 146.800,341.599 145.945,341.461 144.900 C 341.098 142.153,340.989 141.656,340.678 141.345 C 340.525 141.192,340.400 140.477,340.400 139.757 C 340.400 139.037,340.220 138.336,340.000 138.200 C 339.780 138.064,339.600 137.344,339.600 136.600 C 339.600 135.856,339.420 135.136,339.200 135.000 C 338.980 134.864,338.800 134.133,338.800 133.376 C 338.800 132.619,338.620 132.000,338.400 132.000 C 338.180 132.000,338.000 131.280,338.000 130.400 C 338.000 129.520,337.820 128.800,337.600 128.800 C 337.380 128.800,337.200 128.181,337.200 127.424 C 337.200 126.667,337.020 125.936,336.800 125.800 C 336.580 125.664,336.400 125.034,336.400 124.400 C 336.400 123.766,336.220 123.136,336.000 123.000 C 335.780 122.864,335.600 122.133,335.600 121.376 C 335.600 120.619,335.420 120.000,335.200 120.000 C 334.980 120.000,334.800 119.381,334.800 118.624 C 334.800 117.867,334.620 117.136,334.400 117.000 C 334.180 116.864,334.000 116.043,334.000 115.176 C 334.000 114.309,333.820 113.600,333.600 113.600 C 333.380 113.600,333.200 112.981,333.200 112.224 C 333.200 111.467,333.020 110.736,332.800 110.600 C 332.580 110.464,332.400 109.733,332.400 108.976 C 332.400 108.219,332.220 107.600,332.000 107.600 C 331.780 107.600,331.600 106.981,331.600 106.224 C 331.600 105.467,331.420 104.736,331.200 104.600 C 330.980 104.464,330.800 103.834,330.800 103.200 C 330.800 102.566,330.620 101.936,330.400 101.800 C 330.180 101.664,330.000 100.933,330.000 100.176 C 330.000 99.419,329.820 98.800,329.600 98.800 C 329.380 98.800,329.200 98.620,329.200 98.400 C 329.200 98.180,329.436 98.000,329.725 98.000 C 330.013 98.000,330.636 97.640,331.108 97.200 C 331.580 96.760,332.204 96.400,332.495 96.400 C 332.786 96.400,333.283 96.040,333.600 95.600 C 333.917 95.160,334.417 94.800,334.712 94.800 C 335.006 94.800,335.136 94.620,335.000 94.400 C 334.864 94.180,335.028 94.000,335.364 94.000 C 336.064 94.000,344.800 85.493,344.800 84.811 C 344.800 84.565,345.250 83.914,345.800 83.364 C 346.350 82.814,346.800 82.205,346.800 82.010 C 346.800 81.816,347.025 81.414,347.300 81.116 C 347.986 80.374,349.202 78.349,349.471 77.500 C 349.593 77.115,349.852 76.800,350.047 76.800 C 350.241 76.800,350.400 76.440,350.400 76.000 C 350.400 75.560,350.580 75.200,350.800 75.200 C 351.020 75.200,351.200 74.928,351.200 74.595 C 351.200 74.262,351.380 73.632,351.600 73.195 C 351.820 72.758,352.180 72.042,352.400 71.605 C 352.620 71.168,352.800 70.538,352.800 70.205 C 352.800 69.872,352.980 69.600,353.200 69.600 C 353.420 69.600,353.600 69.060,353.600 68.400 C 353.600 67.740,353.780 67.200,354.000 67.200 C 354.220 67.200,354.400 66.570,354.400 65.800 C 354.400 65.030,354.580 64.400,354.800 64.400 C 355.020 64.400,355.200 63.626,355.200 62.680 C 355.200 61.734,355.368 60.789,355.573 60.580 C 356.596 59.536,356.586 41.200,355.561 41.200 C 355.363 41.200,355.200 40.300,355.200 39.200 C 355.200 38.100,355.020 37.200,354.800 37.200 C 354.580 37.200,354.400 36.807,354.400 36.327 C 354.400 35.321,352.880 30.786,352.353 30.220 C 352.159 30.011,352.000 29.426,352.000 28.920 C 352.000 28.414,351.820 28.000,351.600 28.000 C 351.380 28.000,351.200 27.640,351.200 27.200 C 351.200 26.760,351.020 26.400,350.800 26.400 C 350.580 26.400,350.400 26.040,350.400 25.600 C 350.400 25.160,350.220 24.800,350.000 24.800 C 349.780 24.800,349.600 24.564,349.600 24.275 C 349.600 23.987,349.240 23.364,348.800 22.892 C 348.360 22.420,348.000 21.756,348.000 21.417 C 348.000 21.078,347.841 20.800,347.647 20.800 C 347.452 20.800,347.193 20.485,347.071 20.100 C 346.775 19.164,345.476 17.034,345.100 16.867 C 344.935 16.793,344.800 16.388,344.800 15.967 C 344.800 15.545,344.620 15.200,344.400 15.200 C 344.180 15.200,344.000 14.829,344.000 14.376 C 344.000 13.923,343.820 13.664,343.600 13.800 C 343.380 13.936,343.200 13.767,343.200 13.424 C 343.200 13.081,343.020 12.800,342.800 12.800 C 342.580 12.800,342.400 12.440,342.400 12.000 C 342.400 11.560,342.232 11.200,342.027 11.200 C 341.822 11.200,341.542 10.849,341.406 10.420 C 341.054 9.309,335.379 3.600,334.627 3.600 C 334.282 3.600,334.000 3.420,334.000 3.200 C 334.000 2.980,333.722 2.800,333.383 2.800 C 333.044 2.800,332.380 2.440,331.908 2.000 C 331.436 1.560,330.648 1.200,330.158 1.200 C 329.668 1.200,329.192 0.975,329.100 0.700 C 328.860 -0.019,311.859 -0.019,311.140 0.700 C 310.865 0.975,310.316 1.200,309.920 1.200 C 309.524 1.200,309.200 1.380,309.200 1.600 C 309.200 1.820,308.840 2.000,308.400 2.000 C 307.960 2.000,307.600 2.180,307.600 2.400 C 307.600 2.620,307.364 2.800,307.075 2.800 C 306.787 2.800,306.164 3.160,305.692 3.600 C 305.220 4.040,304.556 4.400,304.217 4.400 C 303.878 4.400,303.600 4.580,303.600 4.800 C 303.600 5.020,303.280 5.200,302.888 5.200 C 302.497 5.200,301.917 5.560,301.600 6.000 C 301.283 6.440,300.703 6.800,300.312 6.800 C 299.920 6.800,299.600 6.980,299.600 7.200 C 299.600 7.420,299.229 7.600,298.776 7.600 C 298.323 7.600,298.052 7.761,298.174 7.957 C 298.295 8.154,297.983 8.418,297.479 8.544 C 296.421 8.810,291.465 11.926,291.266 12.451 C 291.192 12.646,290.982 12.712,290.798 12.599 C 290.615 12.485,290.218 12.619,289.917 12.896 C 289.408 13.365,288.588 13.875,286.600 14.962 C 286.160 15.203,285.710 15.490,285.600 15.600 C 285.204 15.996,282.985 17.254,282.300 17.471 C 281.915 17.593,281.600 17.852,281.600 18.047 C 281.600 18.241,281.306 18.400,280.947 18.400 C 280.588 18.400,280.003 18.716,279.647 19.103 C 279.291 19.489,278.460 20.074,277.800 20.403 C 277.140 20.731,276.251 21.315,275.825 21.700 C 274.973 22.469,274.000 22.629,274.000 22.000 C 274.000 21.780,273.730 21.600,273.400 21.600 C 273.070 21.600,272.800 21.454,272.800 21.275 C 272.800 21.096,272.170 20.702,271.400 20.400 C 270.630 20.098,270.000 19.704,270.000 19.525 C 270.000 19.346,269.719 19.200,269.376 19.200 C 269.033 19.200,268.864 19.020,269.000 18.800 C 269.136 18.580,268.877 18.400,268.424 18.400 C 267.971 18.400,267.600 18.220,267.600 18.000 C 267.600 17.780,267.240 17.600,266.800 17.600 C 266.360 17.600,265.997 17.465,265.994 17.300 C 265.990 17.135,265.090 16.560,263.994 16.021 C 262.897 15.483,262.000 14.898,262.000 14.721 C 262.000 14.545,261.640 14.400,261.200 14.400 C 260.760 14.400,260.400 14.220,260.400 14.000 C 260.400 13.780,260.040 13.600,259.600 13.600 C 259.160 13.600,258.800 13.409,258.800 13.176 C 258.800 12.943,258.647 12.848,258.459 12.964 C 258.271 13.080,257.776 12.916,257.359 12.600 C 256.942 12.284,256.285 12.020,255.900 12.013 C 255.515 12.006,255.200 11.820,255.200 11.600 C 255.200 11.380,254.851 11.200,254.424 11.200 C 253.997 11.200,253.536 11.020,253.400 10.800 C 253.264 10.580,252.899 10.400,252.588 10.400 C 252.278 10.400,251.040 9.950,249.837 9.400 C 248.635 8.850,247.190 8.400,246.626 8.400 C 246.062 8.400,245.600 8.220,245.600 8.000 C 245.600 7.780,245.060 7.600,244.400 7.600 C 243.740 7.600,243.200 7.420,243.200 7.200 C 243.200 6.980,242.660 6.800,242.000 6.800 C 241.340 6.800,240.800 6.620,240.800 6.400 C 240.800 6.180,240.249 6.000,239.576 6.000 C 238.863 6.000,238.456 5.833,238.600 5.600 C 238.749 5.358,238.204 5.200,237.224 5.200 C 236.331 5.200,235.600 5.020,235.600 4.800 C 235.600 4.580,234.981 4.400,234.224 4.400 C 233.467 4.400,232.736 4.220,232.600 4.000 C 232.464 3.780,231.643 3.600,230.776 3.600 C 229.909 3.600,229.200 3.420,229.200 3.200 C 229.200 2.980,228.401 2.800,227.424 2.800 C 226.447 2.800,225.536 2.620,225.400 2.400 C 225.264 2.180,224.263 2.000,223.176 2.000 C 222.089 2.000,221.200 1.820,221.200 1.600 C 221.200 1.369,219.944 1.200,218.233 1.200 C 216.525 1.200,215.208 1.023,215.127 0.782 C 214.933 0.200,185.067 0.200,184.873 0.782 C 184.792 1.023,183.475 1.200,181.767 1.200 C 180.056 1.200,178.800 1.369,178.800 1.600 C 178.800 1.820,177.911 2.000,176.824 2.000 C 175.737 2.000,174.736 2.180,174.600 2.400 C 174.464 2.620,173.553 2.800,172.576 2.800 C 171.599 2.800,170.800 2.980,170.800 3.200 C 170.800 3.420,170.091 3.600,169.224 3.600 C 168.357 3.600,167.536 3.780,167.400 4.000 C 167.264 4.220,166.533 4.400,165.776 4.400 C 165.019 4.400,164.400 4.580,164.400 4.800 C 164.400 5.020,163.781 5.200,163.024 5.200 C 162.267 5.200,161.536 5.380,161.400 5.600 C 161.264 5.820,160.713 6.000,160.176 6.000 C 159.639 6.000,159.200 6.180,159.200 6.400 C 159.200 6.620,158.660 6.800,158.000 6.800 C 157.340 6.800,156.800 6.980,156.800 7.200 C 156.800 7.420,156.260 7.600,155.600 7.600 C 154.940 7.600,154.400 7.757,154.400 7.949 C 154.400 8.141,153.724 8.406,152.898 8.538 C 152.071 8.670,150.640 9.143,149.717 9.589 C 148.794 10.035,147.771 10.400,147.443 10.400 C 147.115 10.400,146.736 10.580,146.600 10.800 C 146.464 11.020,146.003 11.200,145.576 11.200 C 145.149 11.200,144.800 11.380,144.800 11.600 C 144.800 11.820,144.485 12.006,144.100 12.013 C 143.715 12.020,143.058 12.284,142.641 12.600 C 142.224 12.916,141.729 13.080,141.541 12.964 C 141.353 12.848,141.200 12.943,141.200 13.176 C 141.200 13.409,140.840 13.600,140.400 13.600 C 139.960 13.600,139.600 13.780,139.600 14.000 C 139.600 14.220,139.240 14.400,138.800 14.400 C 138.360 14.400,138.000 14.545,138.000 14.721 C 138.000 14.898,137.103 15.483,136.006 16.021 C 134.910 16.560,134.010 17.135,134.006 17.300 C 134.003 17.465,133.640 17.600,133.200 17.600 C 132.760 17.600,132.400 17.780,132.400 18.000 C 132.400 18.220,132.122 18.400,131.783 18.400 C 131.444 18.400,130.780 18.760,130.308 19.200 C 129.836 19.640,128.944 20.224,128.325 20.497 C 127.706 20.771,127.200 21.131,127.200 21.298 C 127.200 21.931,124.913 21.564,124.092 20.800 C 123.620 20.360,123.046 20.000,122.817 20.000 C 122.588 20.000,122.400 19.820,122.400 19.600 C 122.400 19.380,122.040 19.200,121.600 19.200 C 121.160 19.200,120.800 19.020,120.800 18.800 C 120.800 18.580,120.480 18.400,120.088 18.400 C 119.697 18.400,119.117 18.040,118.800 17.600 C 118.483 17.160,117.903 16.800,117.512 16.800 C 117.120 16.800,116.800 16.620,116.800 16.400 C 116.800 16.180,116.440 16.000,116.000 16.000 C 115.560 16.000,115.200 15.842,115.200 15.649 C 115.200 15.455,114.660 15.073,114.000 14.800 C 113.340 14.527,112.800 14.145,112.800 13.951 C 112.800 13.758,112.455 13.600,112.033 13.600 C 111.612 13.600,111.207 13.433,111.133 13.230 C 111.060 13.026,110.730 12.801,110.400 12.730 C 110.070 12.658,109.485 12.257,109.100 11.839 C 108.715 11.420,108.400 11.193,108.400 11.335 C 108.400 11.477,107.525 11.054,106.456 10.396 C 105.386 9.738,104.306 9.200,104.056 9.200 C 103.805 9.200,103.600 9.020,103.600 8.800 C 103.600 8.580,103.240 8.400,102.800 8.400 C 102.360 8.400,102.000 8.241,102.000 8.047 C 102.000 7.852,101.685 7.593,101.300 7.471 C 100.364 7.175,98.234 5.876,98.067 5.500 C 97.993 5.335,97.671 5.200,97.350 5.200 C 97.029 5.200,96.380 4.840,95.908 4.400 C 95.436 3.960,94.813 3.600,94.525 3.600 C 94.236 3.600,94.000 3.420,94.000 3.200 C 94.000 2.980,93.640 2.800,93.200 2.800 C 92.760 2.800,92.399 2.665,92.397 2.500 C 92.393 2.149,90.463 1.200,89.754 1.200 C 89.486 1.200,89.192 0.975,89.100 0.700 C 88.932 0.196,75.126 -0.154,72.100 0.269 M83.451 16.236 C 84.303 16.586,85.810 17.367,86.800 17.973 C 87.790 18.578,91.930 21.020,96.000 23.399 C 108.836 30.901,112.194 32.883,112.395 33.073 C 112.503 33.174,110.698 35.089,108.385 37.329 C 98.664 46.738,90.551 56.843,85.131 66.290 C 81.932 71.867,79.067 77.479,77.374 81.485 C 76.791 82.865,75.019 81.753,70.899 77.419 C 63.827 69.981,59.987 60.690,60.008 51.069 C 60.015 47.895,60.252 46.090,61.474 39.895 C 61.594 39.287,61.851 38.692,62.046 38.571 C 62.241 38.451,62.405 38.048,62.410 37.676 C 62.420 37.020,64.609 32.441,66.272 29.600 C 66.723 28.830,68.296 26.130,69.768 23.600 C 74.135 16.094,78.017 14.005,83.451 16.236 M324.216 16.450 C 326.839 17.682,329.996 22.260,335.495 32.800 C 343.533 48.210,340.686 66.286,328.336 78.243 C 323.680 82.751,323.136 83.013,322.390 81.100 C 321.543 78.926,316.430 68.766,315.589 67.584 C 315.155 66.975,314.800 66.365,314.800 66.228 C 314.800 63.739,300.527 45.901,291.867 37.568 L 287.885 33.736 289.043 32.923 C 290.155 32.142,294.501 29.455,297.000 28.004 C 297.660 27.620,299.730 26.359,301.600 25.201 C 318.753 14.576,319.564 14.263,324.216 16.450 M211.323 16.804 C 221.266 18.198,221.306 18.206,228.200 19.833 C 256.278 26.464,281.659 44.329,298.455 69.285 C 299.745 71.201,300.800 72.848,300.800 72.944 C 300.800 73.040,301.500 74.271,302.356 75.679 C 306.161 81.943,310.673 92.522,313.158 101.011 C 313.938 103.675,314.523 105.874,317.198 116.200 C 317.826 118.620,319.064 123.390,319.951 126.800 C 320.838 130.210,322.472 136.510,323.584 140.800 C 330.425 167.205,331.806 172.522,333.609 179.400 C 334.300 182.040,335.017 184.830,335.200 185.600 C 335.383 186.370,336.088 189.115,336.767 191.700 C 337.445 194.285,338.521 198.425,339.158 200.900 C 339.795 203.375,341.404 209.630,342.733 214.800 C 345.245 224.565,346.400 229.951,347.153 235.400 C 353.878 284.094,328.199 332.995,283.924 355.808 C 281.194 357.214,280.829 357.001,281.935 354.649 C 283.236 351.882,285.326 345.340,286.359 340.800 C 287.791 334.510,287.800 334.112,287.800 273.800 L 287.800 214.600 286.880 210.200 C 280.911 181.639,259.122 161.732,230.200 158.415 C 225.416 157.866,174.584 157.866,169.800 158.415 C 154.530 160.166,141.908 166.048,131.506 176.259 C 121.332 186.247,115.726 196.797,112.727 211.600 C 111.958 215.395,111.953 332.470,112.721 336.600 C 113.906 342.967,116.591 352.458,117.587 353.800 C 118.045 354.417,118.788 356.800,118.522 356.800 C 117.810 356.800,109.171 351.862,104.832 348.975 C 80.819 332.998,62.800 308.011,55.858 281.065 C 54.425 275.501,53.420 270.405,52.809 265.600 C 51.379 254.359,51.827 240.154,53.968 228.800 C 54.663 225.119,57.573 213.466,61.461 198.800 C 62.015 196.710,63.096 192.570,63.863 189.600 C 64.630 186.630,65.800 182.130,66.462 179.600 C 67.125 177.070,67.817 174.370,68.000 173.600 C 68.183 172.830,68.875 170.130,69.538 167.600 C 70.200 165.070,71.371 160.570,72.139 157.600 C 72.907 154.630,74.078 150.130,74.741 147.600 C 75.404 145.070,76.761 139.850,77.756 136.000 C 78.750 132.150,80.126 126.840,80.812 124.200 C 81.499 121.560,82.690 116.970,83.460 114.000 C 84.841 108.673,86.142 103.742,86.784 101.400 C 89.837 90.268,96.208 77.057,103.665 66.400 C 121.846 40.418,151.821 21.982,183.000 17.605 C 184.760 17.358,187.190 17.007,188.400 16.824 C 191.588 16.345,207.947 16.330,211.323 16.804 M110.736 131.555 C 106.323 134.353,105.989 141.015,110.104 144.154 C 117.425 149.738,126.609 140.388,120.848 133.215 C 118.351 130.105,114.117 129.410,110.736 131.555 M281.167 131.535 C 275.284 135.266,276.594 143.694,283.350 145.586 C 287.955 146.875,292.766 143.054,292.791 138.087 C 292.822 132.076,286.200 128.343,281.167 131.535 M227.400 173.602 C 231.598 173.984,234.619 174.489,236.800 175.174 C 237.350 175.347,238.520 175.717,239.400 175.997 C 248.417 178.862,258.693 186.731,264.129 194.932 C 266.461 198.449,269.600 204.667,269.600 205.768 C 269.600 206.090,269.759 206.451,269.954 206.571 C 270.149 206.692,270.407 207.287,270.529 207.895 C 270.651 208.503,270.947 209.810,271.187 210.800 C 272.686 216.985,272.765 220.061,272.783 273.231 C 272.799 323.173,272.659 330.409,271.569 336.000 C 269.306 347.606,263.056 359.586,255.396 367.000 C 245.604 376.477,235.113 381.736,221.554 383.965 C 217.984 384.552,182.016 384.552,178.446 383.965 C 162.004 381.262,148.966 373.525,139.310 360.741 C 135.996 356.353,131.200 347.531,131.200 345.822 C 131.200 345.506,131.041 345.149,130.846 345.029 C 130.651 344.908,130.396 344.313,130.279 343.705 C 130.162 343.097,129.859 341.880,129.606 341.000 C 127.277 332.889,127.217 331.204,127.208 273.868 C 127.200 223.537,127.325 217.332,128.443 212.400 C 133.295 190.986,150.453 175.650,171.800 173.646 C 176.975 173.160,222.159 173.124,227.400 173.602 M156.600 206.083 C 147.755 209.174,149.951 219.817,159.711 221.165 C 167.400 222.227,170.821 226.349,171.193 235.000 C 171.523 242.658,173.581 245.400,179.000 245.400 C 191.022 245.400,188.908 221.736,176.000 211.815 C 170.024 207.222,160.984 204.550,156.600 206.083 M237.400 206.002 C 232.805 207.045,231.650 207.377,230.000 208.128 C 220.779 212.325,214.777 220.808,213.603 231.303 C 212.617 240.123,214.497 244.538,219.609 245.402 C 225.494 246.396,228.450 243.055,228.813 235.000 C 229.200 226.406,232.807 222.127,240.477 221.164 C 246.145 220.452,248.600 218.106,248.600 213.400 C 248.600 207.781,243.730 204.565,237.400 206.002 M199.000 266.988 C 198.780 267.066,198.119 267.236,197.531 267.365 C 196.045 267.691,194.113 269.411,193.182 271.234 C 192.429 272.711,192.400 273.754,192.400 299.087 L 192.400 325.405 180.173 337.602 C 173.448 344.311,167.598 350.468,167.173 351.284 C 163.911 357.548,171.495 364.525,177.787 361.049 C 178.234 360.802,183.329 355.920,189.110 350.200 C 194.890 344.480,199.791 339.800,200.000 339.800 C 200.209 339.800,205.110 344.489,210.890 350.220 C 216.671 355.951,221.850 360.844,222.400 361.095 C 227.863 363.581,233.600 359.966,233.600 354.038 C 233.600 351.648,232.038 349.783,219.827 337.602 L 207.600 325.405 207.600 299.290 C 207.600 271.092,207.634 271.573,205.481 269.267 C 204.024 267.707,200.481 266.460,199.000 266.988 " stroke="none" fill="#042c74" fill-rule="evenodd"></path><path id="path1" d="M77.104 16.569 C 74.598 17.463,70.400 21.720,70.400 23.366 C 70.400 23.481,69.521 25.066,68.447 26.888 C 60.548 40.284,59.051 47.532,61.651 59.800 C 62.746 64.971,63.309 65.400,64.932 62.300 C 65.537 61.145,66.343 59.660,66.725 59.000 C 73.834 46.692,81.535 36.509,91.145 26.706 C 94.901 22.875,94.879 23.013,92.000 21.529 C 91.450 21.246,89.507 20.132,87.681 19.053 C 82.441 15.957,80.256 15.444,77.104 16.569 M317.200 16.547 C 316.430 16.829,314.582 17.811,313.093 18.730 C 311.604 19.648,310.209 20.400,309.993 20.400 C 309.777 20.400,309.600 20.559,309.600 20.753 C 309.600 20.948,309.285 21.213,308.900 21.342 C 308.515 21.472,307.590 21.934,306.845 22.368 L 305.490 23.158 309.050 26.879 C 317.872 36.099,326.735 47.507,331.201 55.390 C 331.641 56.166,332.387 57.475,332.861 58.300 C 333.334 59.125,334.279 60.818,334.961 62.062 C 336.744 65.315,337.043 65.149,338.315 60.200 C 341.451 48.000,339.501 39.928,329.280 22.800 C 325.705 16.809,321.887 14.833,317.200 16.547 M170.000 174.430 C 168.570 174.598,166.500 174.937,165.400 175.185 C 164.300 175.433,162.903 175.739,162.295 175.864 C 161.687 175.990,161.092 176.251,160.971 176.446 C 160.851 176.641,160.431 176.800,160.038 176.800 C 159.645 176.800,157.810 177.536,155.961 178.437 C 141.462 185.496,132.484 197.032,128.748 213.400 C 127.949 216.900,127.935 331.404,128.732 335.000 C 129.880 340.173,130.131 341.121,131.274 344.600 C 134.458 354.295,140.991 363.658,149.400 370.574 C 153.315 373.795,153.581 374.000,153.833 374.000 C 153.955 374.000,154.824 374.528,155.763 375.174 C 160.680 378.558,168.808 381.649,177.000 383.252 C 181.033 384.041,218.967 384.041,223.000 383.252 C 231.551 381.579,241.750 377.610,244.975 374.700 C 245.402 374.315,245.895 374.000,246.071 374.000 C 246.434 374.000,246.490 373.956,251.400 369.884 C 253.380 368.241,255.658 366.111,256.462 365.149 C 257.266 364.187,258.320 362.950,258.805 362.400 C 262.302 358.431,266.842 350.276,268.715 344.600 C 269.867 341.108,270.141 340.077,271.268 335.000 C 272.059 331.431,272.052 216.917,271.259 213.400 C 267.611 197.208,258.465 185.461,244.039 178.437 C 242.190 177.536,240.355 176.800,239.962 176.800 C 239.569 176.800,239.149 176.641,239.029 176.446 C 238.908 176.251,238.313 175.990,237.705 175.864 C 237.097 175.739,235.700 175.436,234.600 175.193 C 233.500 174.949,231.250 174.594,229.600 174.403 C 225.940 173.981,173.637 174.004,170.000 174.430 M164.000 205.758 C 168.768 206.782,174.552 209.403,176.000 211.195 C 176.110 211.331,176.877 211.951,177.704 212.572 C 186.677 219.310,190.546 239.961,183.722 244.692 C 177.346 249.113,170.800 244.490,170.800 235.566 C 170.800 230.041,167.875 223.600,165.366 223.600 C 165.055 223.600,164.800 223.464,164.800 223.298 C 164.800 222.732,162.609 222.050,159.200 221.554 C 153.629 220.744,150.800 218.018,150.800 213.461 C 150.800 207.114,156.050 204.051,164.000 205.758 M244.051 205.764 C 252.760 209.403,250.603 220.106,240.868 221.560 C 232.791 222.766,229.200 227.225,229.200 236.048 C 229.200 244.675,222.789 248.929,216.371 244.562 C 211.906 241.524,211.877 228.604,216.316 220.239 C 218.615 215.908,224.866 209.849,228.800 208.141 C 231.325 207.045,231.888 206.827,233.200 206.438 C 237.674 205.112,241.867 204.851,244.051 205.764 M204.451 267.826 C 205.357 268.472,206.527 269.770,207.049 270.711 L 208.000 272.421 208.000 298.702 L 208.000 324.983 220.381 337.392 C 228.616 345.645,232.969 350.298,233.381 351.287 C 236.440 358.637,227.874 365.668,221.442 361.087 C 220.801 360.631,215.804 355.790,210.337 350.329 C 204.870 344.868,200.218 340.400,199.999 340.400 C 199.780 340.400,195.118 344.875,189.639 350.345 C 184.161 355.815,179.165 360.645,178.539 361.080 C 172.034 365.592,163.562 358.632,166.619 351.287 C 167.031 350.298,171.384 345.645,179.619 337.392 L 192.000 324.983 192.000 298.704 C 192.000 269.916,191.885 271.424,194.284 268.720 C 196.569 266.145,201.487 265.712,204.451 267.826 " stroke="none" fill="#93b3f3" fill-rule="evenodd"></path><path id="path2" d="M189.000 16.757 C 188.120 16.891,193.070 17.000,200.000 17.000 C 206.930 17.000,211.790 16.878,210.800 16.730 C 208.595 16.398,191.215 16.420,189.000 16.757 M182.200 17.659 C 155.073 22.597,133.825 33.565,115.666 52.000 C 102.518 65.348,91.504 84.187,86.784 101.400 C 86.142 103.742,84.841 108.673,83.460 114.000 C 82.690 116.970,81.499 121.560,80.812 124.200 C 80.126 126.840,78.750 132.150,77.756 136.000 C 76.761 139.850,75.404 145.070,74.741 147.600 C 74.078 150.130,72.907 154.630,72.139 157.600 C 71.371 160.570,70.200 165.070,69.538 167.600 C 68.875 170.130,68.183 172.830,68.000 173.600 C 67.817 174.370,67.125 177.070,66.462 179.600 C 65.800 182.130,64.630 186.630,63.863 189.600 C 63.096 192.570,62.015 196.710,61.461 198.800 C 57.573 213.466,54.663 225.119,53.968 228.800 C 51.827 240.154,51.379 254.359,52.809 265.600 C 57.564 302.980,80.966 336.960,114.075 354.561 C 116.391 355.793,118.392 356.800,118.522 356.800 C 118.788 356.800,118.045 354.417,117.587 353.800 C 116.591 352.458,113.906 342.967,112.721 336.600 C 111.953 332.470,111.958 215.395,112.727 211.600 C 115.726 196.797,121.332 186.247,131.506 176.259 C 141.908 166.048,154.530 160.166,169.800 158.415 C 174.584 157.866,225.416 157.866,230.200 158.415 C 256.915 161.479,277.441 178.540,285.523 204.400 C 285.764 205.170,286.375 207.780,286.880 210.200 L 287.800 214.600 287.800 273.800 C 287.800 334.112,287.791 334.510,286.359 340.800 C 285.326 345.340,283.236 351.882,281.935 354.649 C 280.829 357.001,281.194 357.214,283.924 355.808 C 328.199 332.995,353.878 284.094,347.153 235.400 C 346.400 229.951,345.245 224.565,342.733 214.800 C 341.404 209.630,339.783 203.330,339.133 200.800 C 338.483 198.270,337.407 194.130,336.742 191.600 C 336.077 189.070,335.383 186.370,335.200 185.600 C 335.017 184.830,334.300 182.040,333.609 179.400 C 331.806 172.522,330.425 167.205,323.584 140.800 C 322.472 136.510,320.838 130.210,319.951 126.800 C 319.064 123.390,317.826 118.620,317.198 116.200 C 312.820 99.301,312.364 97.764,309.779 91.166 C 307.890 86.347,304.353 78.966,302.356 75.679 C 301.500 74.271,300.800 73.040,300.800 72.944 C 300.800 72.848,299.745 71.201,298.455 69.285 C 283.459 47.003,262.321 30.813,237.304 22.446 C 229.385 19.797,215.079 16.710,213.546 17.320 C 213.246 17.439,213.489 17.551,214.086 17.568 C 215.322 17.604,215.818 18.321,216.185 20.607 C 216.326 21.483,216.598 22.920,216.789 23.800 C 217.126 25.353,217.430 26.981,218.392 32.400 C 218.646 33.830,219.009 35.720,219.200 36.600 C 219.391 37.480,219.751 39.370,220.000 40.800 C 220.249 42.230,220.609 44.120,220.800 45.000 C 220.991 45.880,221.338 47.680,221.572 49.000 C 221.805 50.320,222.281 52.840,222.629 54.600 C 222.977 56.360,223.417 58.700,223.607 59.800 C 223.796 60.900,225.144 68.100,226.601 75.800 C 228.059 83.500,229.406 90.700,229.595 91.800 C 229.784 92.900,230.223 95.240,230.571 97.000 C 230.919 98.760,231.395 101.280,231.628 102.600 C 231.862 103.920,232.209 105.720,232.400 106.600 C 232.591 107.480,232.951 109.370,233.200 110.800 C 233.449 112.230,233.809 114.120,234.000 115.000 C 234.191 115.880,234.551 117.770,234.800 119.200 C 235.049 120.630,235.409 122.520,235.600 123.400 C 235.791 124.280,236.152 126.170,236.404 127.600 C 236.933 130.613,237.357 132.915,237.952 136.000 C 238.932 141.087,239.185 142.413,239.972 146.600 C 240.427 149.020,241.159 152.864,241.599 155.143 C 242.040 157.422,242.400 159.467,242.400 159.687 C 242.400 160.100,241.368 159.991,237.800 159.202 C 231.843 157.886,229.985 157.818,200.000 157.818 C 170.015 157.818,168.157 157.886,162.200 159.202 C 159.059 159.897,157.600 160.106,157.600 159.863 C 157.600 159.740,157.773 158.776,157.984 157.720 C 158.195 156.664,158.749 153.730,159.215 151.200 C 159.680 148.670,160.409 144.800,160.835 142.600 C 161.261 140.400,161.799 137.520,162.031 136.200 C 162.263 134.880,162.609 133.080,162.800 132.200 C 162.991 131.320,163.351 129.430,163.600 128.000 C 163.849 126.570,164.209 124.680,164.400 123.800 C 164.591 122.920,164.951 121.030,165.200 119.600 C 165.449 118.170,165.809 116.280,166.000 115.400 C 166.191 114.520,166.554 112.630,166.808 111.200 C 167.753 105.879,168.072 104.160,168.405 102.600 C 168.593 101.720,168.937 99.920,169.169 98.600 C 169.401 97.280,169.939 94.400,170.365 92.200 C 171.140 88.190,172.096 83.111,174.392 70.800 C 175.069 67.170,175.784 63.390,175.981 62.400 C 176.178 61.410,176.545 59.430,176.796 58.000 C 177.048 56.570,177.409 54.680,177.600 53.800 C 177.791 52.920,178.137 51.120,178.369 49.800 C 178.601 48.480,179.155 45.510,179.600 43.200 C 180.045 40.890,180.599 37.920,180.831 36.600 C 181.063 35.280,181.409 33.480,181.600 32.600 C 181.791 31.720,182.153 29.830,182.406 28.400 C 184.069 18.987,184.427 17.845,185.803 17.551 C 187.818 17.120,184.638 17.215,182.200 17.659 M118.568 131.144 C 123.134 133.824,123.966 139.485,120.368 143.388 C 114.344 149.924,104.152 142.549,108.058 134.481 C 109.795 130.893,115.210 129.173,118.568 131.144 M288.129 130.996 C 294.967 133.853,294.096 143.663,286.833 145.596 C 281.609 146.987,276.206 141.576,277.611 136.359 C 278.897 131.583,283.687 129.140,288.129 130.996 " stroke="none" fill="#c86356" fill-rule="evenodd"></path><path id="path3" d="M189.139 17.210 C 184.429 17.569,184.559 17.490,183.995 20.307 C 183.743 21.568,183.383 23.320,183.195 24.200 C 183.007 25.080,182.649 26.970,182.400 28.400 C 182.151 29.830,181.791 31.720,181.600 32.600 C 181.409 33.480,181.063 35.280,180.831 36.600 C 180.599 37.920,180.045 40.890,179.600 43.200 C 179.155 45.510,178.601 48.480,178.369 49.800 C 178.137 51.120,177.791 52.920,177.600 53.800 C 177.409 54.680,177.048 56.570,176.796 58.000 C 176.545 59.430,176.178 61.410,175.981 62.400 C 175.784 63.390,175.069 67.170,174.392 70.800 C 172.096 83.111,171.140 88.190,170.365 92.200 C 169.939 94.400,169.401 97.280,169.169 98.600 C 168.937 99.920,168.591 101.720,168.400 102.600 C 168.209 103.480,167.846 105.370,167.592 106.800 C 166.647 112.121,166.328 113.840,165.995 115.400 C 165.807 116.280,165.449 118.170,165.200 119.600 C 164.951 121.030,164.591 122.920,164.400 123.800 C 164.209 124.680,163.849 126.570,163.600 128.000 C 163.351 129.430,162.991 131.320,162.800 132.200 C 162.609 133.080,162.263 134.880,162.031 136.200 C 161.799 137.520,161.261 140.400,160.835 142.600 C 160.409 144.800,159.680 148.670,159.215 151.200 C 158.749 153.730,158.195 156.664,157.984 157.720 C 157.773 158.776,157.600 159.740,157.600 159.863 C 157.600 160.106,159.059 159.897,162.200 159.202 C 168.157 157.886,170.015 157.818,200.000 157.818 C 229.985 157.818,231.843 157.886,237.800 159.202 C 241.368 159.991,242.400 160.100,242.400 159.687 C 242.400 159.467,242.040 157.422,241.599 155.143 C 240.900 151.522,239.956 146.536,238.809 140.400 C 238.623 139.410,238.281 137.610,238.048 136.400 C 237.133 131.651,236.843 130.103,236.404 127.600 C 236.152 126.170,235.791 124.280,235.600 123.400 C 235.409 122.520,235.049 120.630,234.800 119.200 C 234.551 117.770,234.191 115.880,234.000 115.000 C 233.809 114.120,233.449 112.230,233.200 110.800 C 232.951 109.370,232.591 107.480,232.400 106.600 C 232.209 105.720,231.862 103.920,231.628 102.600 C 231.395 101.280,230.919 98.760,230.571 97.000 C 230.223 95.240,229.784 92.900,229.595 91.800 C 229.406 90.700,228.059 83.500,226.601 75.800 C 225.144 68.100,223.796 60.900,223.607 59.800 C 223.417 58.700,222.977 56.360,222.629 54.600 C 222.281 52.840,221.805 50.320,221.572 49.000 C 221.338 47.680,220.991 45.880,220.800 45.000 C 220.609 44.120,220.249 42.230,220.000 40.800 C 219.751 39.370,219.393 37.480,219.205 36.600 C 218.872 35.040,218.553 33.321,217.608 28.000 C 217.354 26.570,216.985 24.680,216.788 23.800 C 216.591 22.920,216.320 21.452,216.186 20.537 C 215.775 17.737,215.537 17.604,210.191 17.190 C 204.731 16.767,194.833 16.777,189.139 17.210 " stroke="none" fill="#f3b373" fill-rule="evenodd"></path><path id="path4" d="M75.838 16.459 C 73.429 17.730,72.650 18.645,69.768 23.600 C 68.296 26.130,66.723 28.830,66.272 29.600 C 64.609 32.441,62.420 37.020,62.410 37.676 C 62.405 38.048,62.241 38.451,62.046 38.571 C 61.851 38.692,61.594 39.287,61.474 39.895 C 60.252 46.090,60.015 47.895,60.008 51.069 C 59.987 60.690,63.827 69.981,70.899 77.419 C 75.019 81.753,76.791 82.865,77.374 81.485 C 79.067 77.479,81.932 71.867,85.131 66.290 C 90.551 56.843,98.664 46.738,108.385 37.329 C 110.698 35.089,112.503 33.174,112.395 33.073 C 112.194 32.883,108.836 30.901,96.000 23.399 C 91.930 21.020,87.790 18.578,86.800 17.973 C 82.599 15.404,78.827 14.883,75.838 16.459 M315.873 16.610 C 314.101 17.521,310.524 19.674,301.600 25.201 C 299.730 26.359,297.660 27.620,297.000 28.004 C 294.501 29.455,290.155 32.142,289.043 32.923 L 287.885 33.736 291.867 37.568 C 300.527 45.901,314.800 63.739,314.800 66.228 C 314.800 66.365,315.155 66.975,315.589 67.584 C 316.430 68.766,321.543 78.926,322.390 81.100 C 323.136 83.013,323.680 82.751,328.336 78.243 C 339.443 67.489,343.072 50.846,337.372 36.800 C 335.855 33.061,329.015 20.929,327.145 18.660 C 324.619 15.595,319.620 14.686,315.873 16.610 M82.881 16.564 C 83.696 16.855,85.856 17.975,87.681 19.053 C 89.507 20.132,91.450 21.246,92.000 21.529 C 94.879 23.013,94.901 22.875,91.145 26.706 C 81.535 36.509,73.834 46.692,66.725 59.000 C 66.343 59.660,65.537 61.145,64.932 62.300 C 63.309 65.400,62.746 64.971,61.651 59.800 C 59.051 47.532,60.548 40.284,68.447 26.888 C 69.521 25.066,70.400 23.481,70.400 23.366 C 70.400 22.786,73.761 18.313,74.619 17.751 C 77.188 16.067,80.256 15.627,82.881 16.564 M323.800 16.951 C 326.726 18.331,327.588 19.508,333.505 30.200 C 340.101 42.119,341.312 52.394,337.396 63.200 C 336.755 64.969,336.485 64.843,334.961 62.062 C 334.279 60.818,333.334 59.125,332.861 58.300 C 332.387 57.475,331.641 56.166,331.201 55.390 C 326.735 47.507,317.872 36.099,309.050 26.879 L 305.490 23.158 306.845 22.368 C 307.590 21.934,308.515 21.472,308.900 21.342 C 309.285 21.213,309.600 20.948,309.600 20.753 C 309.600 20.559,309.777 20.400,309.993 20.400 C 310.209 20.400,311.604 19.648,313.093 18.730 C 317.928 15.746,320.381 15.339,323.800 16.951 M171.800 173.646 C 152.986 175.412,136.346 188.407,130.113 206.200 C 127.248 214.380,127.199 215.515,127.208 273.868 C 127.217 331.204,127.277 332.889,129.606 341.000 C 129.859 341.880,130.162 343.097,130.279 343.705 C 130.396 344.313,130.651 344.908,130.846 345.029 C 131.041 345.149,131.200 345.506,131.200 345.822 C 131.200 347.531,135.996 356.353,139.310 360.741 C 148.966 373.525,162.004 381.262,178.446 383.965 C 182.016 384.552,217.984 384.552,221.554 383.965 C 235.113 381.736,245.604 376.477,255.396 367.000 C 263.056 359.586,269.306 347.606,271.569 336.000 C 272.659 330.409,272.799 323.173,272.783 273.231 C 272.765 220.061,272.686 216.985,271.187 210.800 C 270.947 209.810,270.651 208.503,270.529 207.895 C 270.407 207.287,270.149 206.692,269.954 206.571 C 269.759 206.451,269.600 206.090,269.600 205.768 C 269.600 204.667,266.461 198.449,264.129 194.932 C 258.693 186.731,248.417 178.862,239.400 175.997 C 238.520 175.717,237.350 175.347,236.800 175.174 C 234.619 174.489,231.598 173.984,227.400 173.602 C 222.159 173.124,176.975 173.160,171.800 173.646 M229.600 174.403 C 231.250 174.594,233.500 174.949,234.600 175.193 C 235.700 175.436,237.097 175.739,237.705 175.864 C 238.313 175.990,238.908 176.251,239.029 176.446 C 239.149 176.641,239.569 176.800,239.962 176.800 C 240.355 176.800,242.190 177.536,244.039 178.437 C 258.465 185.461,267.611 197.208,271.259 213.400 C 272.052 216.917,272.059 331.431,271.268 335.000 C 270.141 340.077,269.867 341.108,268.715 344.600 C 266.842 350.276,262.302 358.431,258.805 362.400 C 258.320 362.950,257.266 364.187,256.462 365.149 C 255.658 366.111,253.380 368.241,251.400 369.884 C 246.490 373.956,246.434 374.000,246.071 374.000 C 245.895 374.000,245.402 374.315,244.975 374.700 C 241.750 377.610,231.551 381.579,223.000 383.252 C 218.967 384.041,181.033 384.041,177.000 383.252 C 168.808 381.649,160.680 378.558,155.763 375.174 C 154.824 374.528,153.955 374.000,153.833 374.000 C 153.581 374.000,153.315 373.795,149.400 370.574 C 140.991 363.658,134.458 354.295,131.274 344.600 C 130.131 341.121,129.880 340.173,128.732 335.000 C 127.935 331.404,127.949 216.900,128.748 213.400 C 132.484 197.032,141.462 185.496,155.961 178.437 C 157.810 177.536,159.645 176.800,160.038 176.800 C 160.431 176.800,160.851 176.641,160.971 176.446 C 161.092 176.251,161.687 175.990,162.295 175.864 C 162.903 175.739,164.300 175.433,165.400 175.185 C 166.500 174.937,168.570 174.598,170.000 174.430 C 173.637 174.004,225.940 173.981,229.600 174.403 M155.459 206.001 C 147.397 210.026,149.842 220.193,159.200 221.554 C 162.609 222.050,164.800 222.732,164.800 223.298 C 164.800 223.464,165.055 223.600,165.366 223.600 C 167.875 223.600,170.800 230.041,170.800 235.566 C 170.800 241.512,172.688 244.695,176.959 245.948 C 181.199 247.192,186.902 243.560,186.759 239.708 C 186.723 238.746,186.663 238.807,186.303 240.166 C 184.894 245.498,177.757 247.381,173.837 243.456 C 171.752 241.367,171.200 239.528,171.200 234.665 C 171.200 226.878,167.221 222.203,159.711 221.165 C 154.687 220.471,152.502 218.950,151.573 215.499 C 149.884 209.228,154.785 204.809,162.119 205.990 C 175.255 208.106,184.150 216.751,186.202 229.400 C 186.658 232.213,186.726 232.373,186.760 230.720 C 186.874 225.306,182.207 215.953,177.704 212.572 C 176.877 211.951,176.110 211.331,176.000 211.195 C 175.635 210.743,172.220 208.584,171.000 208.034 C 164.917 205.290,158.551 204.457,155.459 206.001 M236.200 205.653 C 235.320 205.856,233.970 206.210,233.200 206.438 C 231.888 206.827,231.325 207.045,228.800 208.141 C 222.884 210.710,215.025 220.091,214.174 225.600 C 214.035 226.497,214.418 225.850,215.240 223.800 C 220.815 209.893,239.203 200.782,246.656 208.235 C 250.581 212.160,248.698 219.294,243.366 220.703 C 241.902 221.090,241.878 221.119,243.000 221.145 C 245.996 221.215,249.314 217.169,249.314 213.447 C 249.314 207.280,243.669 203.925,236.200 205.653 M237.083 221.813 C 231.559 223.841,229.141 227.696,228.815 235.000 C 228.645 238.788,228.425 240.133,227.772 241.379 C 224.327 247.945,215.052 246.522,213.574 239.200 L 213.292 237.800 213.248 239.200 C 213.117 243.382,218.692 247.227,223.034 245.948 C 227.310 244.689,229.200 241.655,229.200 236.048 C 229.200 227.891,232.576 223.128,239.306 221.791 C 241.517 221.352,241.619 221.293,240.200 221.276 C 239.320 221.265,237.917 221.507,237.083 221.813 M213.473 227.753 C 213.323 228.145,213.223 229.576,213.251 230.933 L 213.301 233.400 213.657 230.621 C 214.027 227.742,213.948 226.516,213.473 227.753 M186.928 235.600 C 186.928 237.030,187.001 237.615,187.089 236.900 C 187.178 236.185,187.178 235.015,187.089 234.300 C 187.001 233.585,186.928 234.170,186.928 235.600 M196.544 267.198 C 191.800 269.611,192.000 268.225,192.000 298.704 L 192.000 324.983 179.619 337.392 C 171.384 345.645,167.031 350.298,166.619 351.287 C 163.562 358.632,172.034 365.592,178.539 361.080 C 179.165 360.645,184.161 355.815,189.639 350.345 C 195.118 344.875,199.780 340.400,199.999 340.400 C 200.218 340.400,204.870 344.868,210.337 350.329 C 215.804 355.790,220.801 360.631,221.442 361.087 C 227.874 365.668,236.440 358.637,233.381 351.287 C 232.969 350.298,228.616 345.645,220.381 337.392 L 208.000 324.983 208.000 298.702 L 208.000 272.421 207.049 270.711 C 204.943 266.920,200.205 265.336,196.544 267.198 M203.600 267.809 C 207.670 269.904,207.600 269.351,207.600 299.290 L 207.600 325.405 219.827 337.602 C 232.038 349.783,233.600 351.648,233.600 354.038 C 233.600 359.966,227.863 363.581,222.400 361.095 C 221.850 360.844,216.671 355.951,210.890 350.220 C 205.110 344.489,200.209 339.800,200.000 339.800 C 199.791 339.800,194.890 344.480,189.110 350.200 C 183.329 355.920,178.234 360.802,177.787 361.049 C 171.495 364.525,163.911 357.548,167.173 351.284 C 167.598 350.468,173.448 344.311,180.173 337.602 L 192.400 325.405 192.400 299.087 C 192.400 273.754,192.429 272.711,193.182 271.234 C 194.113 269.411,196.045 267.691,197.531 267.365 C 198.119 267.236,198.780 267.066,199.000 266.988 C 199.668 266.750,202.537 267.262,203.600 267.809 " stroke="none" fill="#6865dd" fill-rule="evenodd"></path></g></svg>