<!DOCTYPE svg PUBLIC "-//W3C//DTD SVG 1.1//EN" "http://www.w3.org/Graphics/SVG/1.1/DTD/svg11.dtd">
<!-- Uploaded to: SVG Repo, www.svgrepo.com, Transformed by: SVG Repo Mixer Tools -->
<svg width="800px" height="800px" viewBox="-32 0 320 320" version="1.1" xmlns="http://www.w3.org/2000/svg" xmlns:xlink="http://www.w3.org/1999/xlink" preserveAspectRatio="xMidYMid" fill="#000000">
<g id="SVGRepo_bgCarrier" stroke-width="0"/>
<g id="SVGRepo_tracerCarrier" stroke-linecap="round" stroke-linejoin="round"/>
<g id="SVGRepo_iconCarrier"> <g> <path d="M128,0 C57.28,0 0,57.28 0,128 L64,128 C64,92.672 92.672,64 128,64 L128,0 L128,0 Z" fill="#D6FF00"> </path> <path d="M256,128 C256,57.28 198.72,0 128,0 L128,64 C163.328,64 192,92.672 192,128 L256,128 L256,128 Z" fill="#34E27A"> </path> <path d="M128,256 C198.72,256 256,198.72 256,128 L192,128 C192,163.328 163.328,192 128,192 L128,256 L128,256 Z" fill="#00B9F1"> </path> <path d="M64,256 L64,128 L0,128 L0,320 L128,320 L128,256 L64,256 L64,256 Z" fill="#e3e3e3"> </path> </g> </g>
</svg>